PathFileType	4	(X/Y/Z)	Kaydara	
DataRate	CameraRate	NumFrames	NumMarkers	Units	OrigDataRate	OrigDataStartFrame	OrigNumFrames	
120.00	120.00	7	30	mm	120.00	712	2847	
Frame#	Time	reference			Pelvis			Left_hip			Left_knee			Left_ankle			Left_foot			Left_foot_End			Right_hip			Right_knee			Right_ankle			Right_foot			Right_foot_End			Spine1			Spine2			Spine3			Neck			Head			Head_End			Left_collar			Left_shoulder			Left_elbow			Left_wrist			Left_palm			Left_palm_End			Right_collar			Right_shoulder			Right_elbow			Right_wrist			Right_palm			Right_palm_End			
		X1	Y1	Z1	X2	Y2	Z2	X3	Y3	Z3	X4	Y4	Z4	X5	Y5	Z5	X6	Y6	Z6	X7	Y7	Z7	X8	Y8	Z8	X9	Y9	Z9	X10	Y10	Z10	X11	Y11	Z11	X12	Y12	Z12	X13	Y13	Z13	X14	Y14	Z14	X15	Y15	Z15	X16	Y16	Z16	X17	Y17	Z17	X18	Y18	Z18	X19	Y19	Z19	X20	Y20	Z20	X21	Y21	Z21	X22	Y22	Z22	X23	Y23	Z23	X24	Y24	Z24	X25	Y25	Z25	X26	Y26	Z26	X27	Y27	Z27	X28	Y28	Z28	X29	Y29	Z29	X30	Y30	Z30	

712	5.925	0.00000	0.00000	0.00000	629.79000	875.29999	-869.48997	542.96371	827.03601	-844.08165	595.17150	535.98765	-1096.81888	641.91161	244.96549	-785.43086	642.98162	149.65949	-890.92838	642.98162	149.65949	-890.92838	649.62221	778.12780	-822.82557	842.50647	501.67432	-1011.18749	868.54090	111.06558	-853.88748	938.01950	32.90576	-959.33301	938.01950	32.90576	-959.33301	673.18043	987.31192	-902.18964	721.65239	1111.86237	-936.82733	745.75156	1158.64499	-956.41114	840.38231	1339.23787	-1016.25852	871.09218	1429.35218	-1054.85377	871.09218	1429.35218	-1054.85377	723.55788	1286.81930	-996.07445	616.10783	1360.78066	-1018.43572	462.53163	1169.16552	-1093.69424	364.98433	1086.34131	-1327.02143	349.91314	1040.96707	-1401.75822	349.91314	1040.96707	-1401.75822	864.24859	1236.43657	-955.92837	985.50425	1229.63236	-937.53390	892.32592	985.28913	-915.98300	718.62375	1007.55995	-1120.51458	685.22092	1022.29852	-1202.49779	685.22092	1022.29852	-1202.49779 
713	5.933	0.00000	0.00000	0.00000	625.23998	870.19997	-867.21001	537.74252	823.51037	-841.17014	594.97398	536.45268	-1097.36021	642.31867	245.83633	-785.68467	643.39137	150.63056	-891.27261	643.39137	150.63056	-891.27261	643.70137	773.39217	-819.24393	841.39656	502.09829	-1010.10335	868.62801	111.37180	-853.29925	938.13503	33.23130	-958.74039	938.13503	33.23130	-958.74039	670.20476	981.14029	-901.40190	720.22807	1104.65692	-937.50486	744.75596	1151.04247	-957.49669	840.46528	1330.71841	-1018.37983	871.70362	1420.43333	-1057.47813	871.70362	1420.43333	-1057.47813	723.33261	1279.14713	-997.80334	616.42075	1353.75875	-1020.58016	461.89827	1162.54143	-1094.90783	363.88541	1079.20260	-1327.85636	348.57244	1033.60838	-1402.40990	348.57244	1033.60838	-1402.40990	863.74384	1228.08266	-957.54033	984.97681	1220.52528	-939.29099	891.29175	976.43461	-917.08483	716.78777	998.29432	-1120.97723	683.08661	1012.91254	-1202.85984	683.08661	1012.91254	-1202.85984 
714	5.942	0.00000	0.00000	0.00000	620.00000	865.55000	-864.67003	532.26638	819.41972	-838.42869	594.67287	536.39543	-1097.87732	642.51748	246.13193	-785.94941	643.55957	151.04303	-891.64293	643.55957	151.04303	-891.64293	637.96872	768.85329	-816.29456	840.63245	502.88206	-1009.42093	868.98717	112.02024	-853.15412	938.43790	33.80518	-958.57707	938.43790	33.80518	-958.57707	665.52983	976.11271	-899.33405	716.20692	1099.19606	-936.00061	740.99418	1145.33707	-956.23692	837.79892	1324.05914	-1018.18639	869.57174	1413.36071	-1057.79693	869.57174	1413.36071	-1057.79693	720.35811	1273.36775	-997.18427	614.02661	1348.66572	-1020.41466	458.62449	1157.77350	-1093.73725	360.27767	1073.88031	-1326.34579	344.75553	1028.04860	-1400.71021	344.75553	1028.04860	-1400.71021	860.48566	1221.59144	-956.84215	981.66747	1213.29943	-938.57201	887.45316	969.47824	-915.65588	712.45446	990.32371	-1119.23024	678.78769	1004.82259	-1201.14821	678.78769	1004.82259	-1201.14821 
715	5.950	0.00000	0.00000	0.00000	614.91001	860.80002	-862.32002	526.90665	815.33851	-835.81608	594.70584	536.52633	-1098.45262	643.21194	246.62347	-786.29157	644.12499	151.64886	-892.08898	644.12499	151.64886	-892.08898	632.30672	764.23589	-813.47291	840.20920	503.90142	-1008.69995	869.80924	112.86730	-853.09652	939.12034	34.46449	-958.47188	939.12034	34.46449	-958.47188	661.10132	970.90872	-897.54940	712.51682	1093.49197	-934.85767	737.57731	1139.37207	-955.34908	835.47004	1317.13844	-1018.33008	867.77394	1406.02649	-1058.43807	867.77394	1406.02649	-1058.43807	717.72756	1267.32917	-996.91056	611.96843	1343.28237	-1020.61589	455.71021	1152.70543	-1092.93227	357.14848	1068.13747	-1325.20526	341.45459	1022.02238	-1399.35815	341.45459	1022.02238	-1399.35815	857.56790	1214.83221	-956.50327	978.68682	1205.81406	-938.16019	883.89643	962.27580	-914.61960	707.80595	982.85744	-1117.27728	673.94430	997.09084	-1199.16148	673.94430	997.09084	-1199.16148 
716	5.958	0.00000	0.00000	0.00000	610.35999	856.33003	-860.14999	522.07412	811.54485	-833.43498	595.15412	536.65805	-1098.77904	644.12100	247.12468	-786.34713	644.96161	152.24728	-892.23233	644.96161	152.24728	-892.23233	627.15355	759.90195	-810.82538	837.69252	502.43202	-1007.02337	868.14558	111.23180	-852.00316	937.12755	32.47616	-957.33138	937.12755	32.47616	-957.33138	657.23551	965.97602	-895.91470	709.41233	1088.04678	-933.84125	734.75844	1133.65733	-954.58161	833.77342	1310.43046	-1018.59543	866.63327	1398.88112	-1059.21548	866.63327	1398.88112	-1059.21548	715.72057	1261.50997	-996.83858	610.52076	1338.07620	-1021.05499	453.45044	1147.79894	-1092.39460	354.78799	1062.36287	-1324.30686	338.91140	1015.89040	-1398.19728	338.91140	1015.89040	-1398.19728	855.23826	1208.32492	-956.21630	976.28699	1198.58455	-937.77952	881.20212	955.18431	-914.00025	704.52397	974.57449	-1116.26356	670.26799	988.35575	-1198.06104	670.26799	988.35575	-1198.06104 
717	5.967	0.00000	0.00000	0.00000	606.32000	852.39998	-858.13004	517.75891	808.27463	-831.22862	595.75278	536.94034	-1098.82078	645.10687	247.73619	-786.14497	645.87618	152.97846	-892.13782	645.87618	152.97846	-892.13782	622.51891	756.10202	-808.35440	832.54237	498.06181	-1004.35562	863.40564	106.70970	-849.80059	932.04740	27.60000	-955.08573	932.04740	27.60000	-955.08573	653.86617	961.59295	-894.39199	706.78857	1083.15886	-932.90252	732.41524	1128.50228	-953.88246	832.52081	1304.28740	-1018.91277	865.92623	1392.29515	-1060.04661	865.92623	1392.29515	-1060.04661	714.16774	1256.22290	-996.88086	609.56183	1333.46510	-1021.51964	451.70001	1143.53570	-1092.03435	352.92458	1056.72949	-1323.38905	336.96085	1009.79126	-1396.96562	336.96085	1009.79126	-1396.96562	853.35340	1202.41460	-955.94158	974.32925	1191.94929	-937.42386	879.37747	948.49206	-913.69633	702.32690	966.06388	-1115.80008	667.21612	979.29928	-1197.32480	667.21612	979.29928	-1197.32480 
718	5.975	0.00000	0.00000	0.00000	602.14001	848.41003	-856.19003	513.26163	805.04087	-829.10595	595.90983	537.35025	-1098.96131	645.79128	248.45904	-786.07996	646.42603	153.82275	-892.18214	646.42603	153.82275	-892.18214	617.64562	752.26080	-805.90866	830.48615	497.28561	-1002.87982	862.09270	105.66147	-849.16635	930.55212	26.37917	-954.44038	930.55212	26.37917	-954.44038	650.46112	957.08088	-892.99207	704.24282	1078.07319	-932.11371	730.18680	1123.12708	-953.32612	831.48320	1297.87936	-1019.28939	865.49062	1385.42793	-1060.90696	865.49062	1385.42793	-1060.90696	712.80344	1250.71462	-997.07114	608.46709	1328.27512	-1021.85257	449.84985	1138.73550	-1091.71789	350.79161	1050.71315	-1322.49144	334.69480	1003.39160	-1395.79297	334.69480	1003.39160	-1395.79297	851.60583	1196.23662	-955.71842	972.49550	1184.98603	-937.09856	877.13918	941.71023	-913.13360	699.61770	957.70747	-1114.95483	663.95877	970.30016	-1196.34332	663.95877	970.30016	-1196.34332 
